/* XPM */
static char *_a7011f5d2144420fb821556f5f5e063[] = {
/* columns rows colors chars-per-pixel */
"143 99 3 1 ",
"  c #CB0000",
". c #CC0000",
"X c None",
/* pixels */
"XXXXXXXXXXXXXXXXXXXXXXXXXXXXXXXXXXXXXXXXXXXXXXXXXXXXXXXXXXXXXXXXXXXXXXXXXXXXXXXXXXXXXXXXXXXXXXXXXXXXXXXXXXXXXXXXXXXXXXXXXXXXXXXXXXXXXXXXXXXXXXX",
"XXXXXXXXXXXXXXXXXXXXXXXXXXXXXXXXXXXXXXXXXXXXXXXXXXXXXXXXXXXXXXXXXXXXXXXXXXXXXXXXXXXXXXXXXXXXXXXXXXXXXXXXXXXXXXXXXXXXXXXXXXXXXXXXXXXXXXXXXXXXXXX",
"XXXXXXXXXXXXXXXXXXXXXXXXXXXXXXXXXXXXXXXXXXXXXXXXXXXXXXXXXXXXXXXXXXXXXXXXXXXXXXXXXXXXXXXXXXXXXXXXXXXXXXXXXXXXXXXXXXXXXXXXXXXXXXXXXXXXXXXXXXXXXXX",
"XXXXXXXXXXXXXXXXXXXXXXXXXXXXXXXXXXXXXXXXXXXXXXXXXXXXXXXXXXXXXXXXXXXXXXXXXXXXXXXXXXXXXXXXXXXXXXXXXXXXXXXXXXXXXXXXXXXXXXXXXXXXXXXXXXXXXXXXXXXXXXX",
"XXXXXXXXXXXXXXXXXXXXXXXXXXXXXXXXXXXXXXXXXXXXXXXXXXXXXXXXXXXXXXXXXXXXXXXXXXXXXXXXXXXXXXXXXXXXXXXXXXXXXXXXXXXXXXXXXXXXXXXXXXXXXXXXXXXXXXXXXXXXXXX",
"XXXXXXXXXXXXXXXXXXXXXXXXXXXXXXXXXXXXXXXXXXXXXXXXXXXXXXXXXXXXXXXXXXXXXXXXXXXXXXXXXXXXXXXXXXXXXXXXXXXXXXXXXXXXXXXXXXXXXXXXXXXXXXXXXXXXXXXXXXXXXXX",
"XXXXXXXXXXXXXXXXXXXXXXXXXXXXXXXXXXXXXXXXXXXXXXXXXXXXXXXXXXXXXXXXXXXXXXXXXXXXXXXXXXXXXXXXXXXXXXXXXXXXXXXXXXXXXXXXXXXXXXXXXXXXXXXXXXXXXXXXXXXXXXX",
"XXXXXXXXXXXXXXXXXXXXXXXXXXXXXXXXXXXXXXXXXXXXXXXXXXXXXXXXXXXXXXXXXXXXXXXXXXXXXXXXXXXXXXXXXXXXXXXXXXXXXXXXXXXXXXXXXXXXXXXXXXXXXXXXXXXXXXXXXXXXXXX",
"XXXXXXXXXXXXXXXXXXXXXXXXXXXXXXXXXXXXXXXXXXXXXXXXXXXXXXXXXXXXXXXXXXXXXXXXXXXXXXXXXXXXXXXXXXXXXXXXXXXXXXXXXXXXXXXXXXXXXXXXXXXXXXXXXXXXXXXXXXXXXXX",
"XXXXXXXXXXXXXXXXXXXXXXXXXXXXXXXXXXXXXXXXXXXXXXXXXXXXXXXXXXXXXXXXXXXXXXXXXXXXXXXXXXXXXXXXXXXXXXXXXXXXXXXXXXXXXXXXXXXXXXXXXXXXXXXXXXXXXXXXXXXXXXX",
"XXXXXXXXXXXXXXXXXXXXXXXXXXXXXXXXXXXXXXXXXXXXXXXXXXXXXXXXXXXXXXXXXXXXXXXXXXXXXXXXXXXXXXXXXXXXXXXXXXXXXXXXXXXXXXXXXXXXXXXXXXXXXXXXXXXXXXXXXXXXXXX",
"XXXXXXXXXXXXXXXXXXXXXXXXXXXXXXXXXXXXXXXXXXXXXXXXXXXXXXXXXXXXXXXXXXXXXXXXXXXXXXXXXXXXXXXXXXXXXXXXXXXXXXXXXXXXXXXXXXXXXXXXXXXXXXXXXXXXXXXXXXXXXXX",
"XXXXXXXXXXXXXXXXXXXXXXXXXXXXXXXXXXXXXXXXXXXXXXXXXXXXXXXXXXXXXXXXXXXXXXXXXXXXXXXXXXXXXXXXXXXXXXXXXXXXXXXXXXXXXXXXXXXXXXXXXXXXXXXXXXXXXXXXXXXXXXX",
"XXXXXXXXXXXXXXXXXXXXXXXXXXXXXXXXXXXXXXXXXXXXXXXXXXXXXXXXXXXXXXXXXXXXXXXXXXXXXXXXXXXXXXXXXXXXXXXXXXXXXXXXXXXXXXXXXXXXXXXXXXXXXXXXXXXXXXXXXXXXXXX",
"XXXXXXXXXXXXXXXXXXXXXXXXXXXXXXXXXXXXXXXXXXXXXXXXXXXXXXXXXXXXXXXXXXXXXXXXXXXXXXXXXXXXXXXXXXXXXXXXXXXXXXXXXXXXXXXXXXXXXXXXXXXXXXXXXXXXXXXXXXXXXXX",
"XXXXXXXXXXXXXXXXXXXXXXXXXXXXXXXXXXXXXXXXXXXXXXXXXXXXXXXXXXXXXXXXXXXXXXXXXXXXXXXXXXXXXXXXXXXXXXXXXXXXXXXXXXXXXXXXXXXXXXXXXXXXXXXXXXXXXXXXXXXXXXX",
"XXXXXXXXXXXXXXXXXXXXXXXXXXXXXXXXXXXXXXXXXXXXXXXXXXXXXXXXXXXXXXXXXXXXXXXXXXXXXXXXXXXXXXX          XXXXX          XXXXXXXXXXXXXXXXXXXXXXXXXXXXXXX",
"XXXXXXXXXXXXXXXXXXXXXXXXXXXXXXXXXXXXXXXXXXXXXXXXXXXXXXXXXXXXXXXXXXXXXXXXXXXXXXXXXXXXXX  ........ XXXXX ........ XXXXXXXXXXXXXXXXXXXXXXXXXXXXXXX",
"XXXXXXXXXXXXXXXXXXXXXXXXXXXXXXXXXXXXXXXXXXXXXXXXXXXXXXXXXXXXXXXXXXXXXXXXXXXXXXXXXXXXXX ......... XXXX ......... XXXXXXXXXXXXXXXXXXXXXXXXXXXXXXX",
"XXXXXXXXXXXXXXXXXXXXXXXXXXXXXXXXXXXXXXXXXXXXXXXXXXXXXXXXXXXXXXXXXXXXXXXXXXXXXXXXXXXXXX ......... XXXX ......... XXXXXXXXXXXXXXXXXXXXXXXXXXXXXXX",
"XXXXXXXXXXXXXXXXXXXXXXXXXXXXXXXXXXXXXXXXXXXXXXXXXXXXXXXXXXXXXXXXXXXXXXXXXXXXXXXXXXXXXX ......... XXXX ......... XXXXXXXXXXXXXXXXXXXXXXXXXXXXXXX",
"XXXXXXXXXXXXXXXXXXXXXXXXXXXXXXXXXXXXXXXXXXXXXXXXXXXXXXXXXXXXXXXXXXXXXXXXXXXXXXXXXXXXXX ......... XXXX ......... XXXXXXXXXXXXXXXXXXXXXXXXXXXXXXX",
"XXXXXXXXXXXXXXXXXXXXXXXXXXXXXXXXXXXXXXXXXXXXXXXXXXXXXXXXXXXXXXXXXXXXXXXXXXXXXXXXXXXXX  ........  XXXX .........  XXXXXXXXXXXXXXXXXXXXXXXXXXXXXX",
"XXXXXXXXXXXXXXXXXXXXXXXXXX                         XXXXX          XXXX           XXXX ......... XXXX  ..........              XXXXXXXXXXXXXXXXX",
"XXXXXXXXXXXXXXXXXXXXXXXXX ........................ XXXX ......... XXXX ......... XXXX ......... XXXX ........................ XXXXXXXXXXXXXXXXX",
"XXXXXXXXXXXXXXXXXXXXXXXXX ........................ XXXX ......... XXXX ......... XXXX ......... XXXX ........................ XXXXXXXXXXXXXXXXX",
"XXXXXXXXXXXXXXXXXXXXXXXXX ........................ XXXX ......... XXXX ......... XXXX           XXXX ........................ XXXXXXXXXXXXXXXXX",
"XXXXXXXXXXXXXXXXXXXXXXXXX .......................  XXXX ........  XXXX ........  XXXXXXXXXXXXXXXXXXX ........................ XXXXXXXXXXXXXXXXX",
"XXXXXXXXXXXXXXXXXXXXXXXXX ....................... XXXXX ........ XXXX  ........ XXXXXXXXXXXXXXXXXXXX ....................... XXXXXXXXXXXXXXXXXX",
"XXXXXXXXXXXXXXXXXXXXXXXX  ....................... XXXX  ........ XXXX ......... XXXXXXXXXXXXXXXXXXX  ....................... XXXXXXXXXXXXXXXXXX",
"XXXXXXXXXXXXXXXXXXXXXXXX ........................ XXXX ......... XXXX ......... XXXXXXXXXXXXXXXXXXX ........................ XXXXXXXXXXXXXXXXXX",
"XXXXXXXXXXXXXXXXXXXXXXXX ........................ XXXX ......... XXXX ......... XXXX          XXXXX ........................ XXXXXXXXXXXXXXXXXX",
"XXXXXXXXXXXXXXXXXXXXXXXX ..........   ........... XXXX ......... XXXX ......... XXXX ........  XXXX ..........               XXXXXXXXXXXXXXXXXX",
"XXXXXXXXXXXXXXXXXXXXXXXX .........     .........  XXXX ........  XXXX ........  XXX  ........ XXXXX .........              XXXXXXXXXXXXXXXXXXXX",
"XXXXXXXXXXXXXXXXXXXXXXX  ........  XXX ......... XXXX  ........ XXXX  ........ XXXX ......... XXXX  ........  XXXXXXXXXXXXXXXXXXXXXXXXXXXXXXXXX",
"XXXXXXXXXXXXXXXXXXXXXXX ......... XXXX ......... XXXX ......... XXXX ......... XXXX ......... XXXX ......... XXXXXXXXXXXXXXXXXXXXXXXXXXXXXXXXXX",
"XXXXXXXXXXXXXXXXXXXXXXX ......... XXXX ......... XXXX ......... XXXX ......... XXXX ......... XXXX ......... XXXXXXXXXXXXXXXXXXXXXXXXXXXXXXXXXX",
"XXXXXXXXXXXXXXXXXXXXXXX ......... XXXX ......... XXXX ......... XXXX ......... XXXX ......... XXXX ......... XXXXXXXXXXXXXXXXXXXXXXXXXXXXXXXXXX",
"XXXXXXXXXXXXXXXXXXXXXXX ......... XXXX ......... XXXX ......... XXXX ......... XXXX ........  XXXX ......... XXXX          XXXXXXXXXXXXXXXXXXXX",
"XXXXXXXXXXXXXXXXXXXXXXX ........  XXXX ........  XXXX ........  XXX  ........  XXX  ........ XXXXX ........  XXXX ........  XXXXXXXXXXXXXXXXXXX",
"XXXXXXXXXXXXXXXXXXXXXX  ........ XXXX  ........ XXXX  ........ XXXX ......... XXXX ......... XXXX  ........ XXXX  ........ XXXXXXXXXXXXXXXXXXXX",
"XXXXXXXXXXXXXXXXXXXXXX ......... XXXX ......... XXXX ......... XXXX ......... XXXX ......... XXXX ......... XXXX ......... XXXXXXXXXXXXXXXXXXXX",
"XXXXXXXXXXXXXXXXXXXXXX ......... XXXX ......... XXXX ......... XXXX ......... XXXX ......... XXXX ......... XXXX ......... XXXXXXXXXXXXXXXXXXXX",
"XXXXXXXXXXXXXXXXXXXXXX ......... XXXX ......... XXXX ......... XXXX ......... XXXX ......... XXXX ......... XXXX ......... XXXXXXXXXXXXXXXXXXXX",
"XXXXXXXXXXXXXXXXXXXXXX ......... XXXX ......... XXXX ........  XXXX ......... XXXX ........  XXXX ......... XXXX ......... XXXXXXXXXXXXXXXXXXXX",
"XXXXXXXXXXXXXXXXXXXXXX ........ XXXX  ........ XXXXX ........ XXXX  ........ XXXX ......... XXXXX ........ XXXX  ........  XXXXXXXXXXXXXXXXXXXX",
"XXXXXXXXXXXXXXXXXXXXX ......... XXXX ......... XXXX ......... XXXX ......... XXXX ......... XXXX ......... XXXX ......... XXXXXXXXXXXXXXXXXXXXX",
"XXXXXXXXXXXXXXXXXXXXX ......... XXXX ......... XXXX ......... XXXX ......... XXXX ......... XXXX ......... XXXX ......... XXXXXXXXXXXXXXXXXXXXX",
"XXXXXXXXXXXXXXXXXXXXX ......... XXXX ......... XXXX ......... XXXX ......... XXXX ......... XXXX ......... XXXX ......... XXXXXXXXXXXXXXXXXXXXX",
"XXXXXXXXXXXXXXXXXXXXX ......... XXXX ......... XXXX ......... XXXX ......... XXXX ......... XXXX ......... XXXX ......... XXXXXXXXXXXXXXXXXXXXX",
"XXXXXXXXXXXXXXXXXXXXX ........  XXXX ........  XXXX ........  XXXX ........  XXX  ........ XXXXX ........  XXXX ........  XXXXXXXXXXXXXXXXXXXXX",
"XXXXXXXXXXXXXXXXXXXX  ........ XXXX  ........ XXXX  ........ XXXX  ........ XXXX ......... XXXX  ........ XXXX  ........ XXXXXXXXXXXXXXXXXXXXXX",
"XXXXXXXXXXXXXXXXXXXX ......... XXXX ......... XXXX ......... XXXX ......... XXXX ......... XXXX ......... XXXX ......... XXXXXXXXXXXXXXXXXXXXXX",
"XXXXXXXXXXXXXXXXXXXX ......... XXXX ......... XXXX ......... XXXX ......... XXXX ......... XXXX ......... XXXX ......... XXXXXXXXXXXXXXXXXXXXXX",
"XXXXXXXXXXXXXXXXXXXX ......... XXXX ......... XXXX ......... XXXX ......... XXXX ......... XXXX ......... XXXX ......... XXXXXXXXXXXXXXXXXXXXXX",
"XXXXXXXXXXXXXXXXXXXX ......... XXXX ......... XXXX ......... XXXX ......... XXXX ........  XXXX ......... XXXX ......... XXXXXXXXXXXXXXXXXXXXXX",
"XXXXXXXXXXXXXXXXXXXX ........  XXXX ........  XXXX ........  XXXX ........  XXX  ........ XXXXX ........  XXXX ........  XXXXXXXXXXXXXXXXXXXXXX",
"XXXXXXXXXXXXXXXXXXX  ........ XXXX ......... XXXX  ........ XXXX ......... XXXX ......... XXXX  ........ XXXX ......... XXXXXXXXXXXXXXXXXXXXXXX",
"XXXXXXXXXXXXXXXXXXX ......... XXXX ......... XXXX ......... XXXX ......... XXXX ......... XXXX ......... XXXX ......... XXXXXXXXXXXXXXXXXXXXXXX",
"XXXXXXXXXXXXXXXXXXX ......... XXXX ......... XXXX ......... XXXX ......... XXXX ......... XXXX ......... XXXX ......... XXXXXXXXXXXXXXXXXXXXXXX",
"XXXXXXXXXXXXXXXXXXX ......... XXXX ......... XXXX ......... XXXX ......... XXXX ......... XXXX ......... XXXX ......... XXXXXXXXXXXXXXXXXXXXXXX",
"XXXXXXXXXXXXXXXXXXX ......... XXXX ......... XXXX ........  XXXX ......... XXXX ........  XXXX ......... XXXX ......... XXXXXXXXXXXXXXXXXXXXXXX",
"XXXXXXXXXXXXXXXXXX  ........ XXXX  ........  XXX  ........ XXXX  ........ XXXX ......... XXXX  ........ XXXX  ........  XXXXXXXXXXXXXXXXXXXXXXX",
"XXXXXXXXXXXXXXXXXX ......... XXXX ......... XXXX ......... XXXX ......... XXXX ......... XXXX ......... XXXX ......... XXXXXXXXXXXXXXXXXXXXXXXX",
"XXXXXXXXXXXXXXXXXX ......... XXXX ......... XXXX ......... XXXX ......... XXXX ......... XXXX ......... XXXX ......... XXXXXXXXXXXXXXXXXXXXXXXX",
"XXXXXXXXXXXXXXXXXX ......... XXXX ......... XXXX ......... XXXX ......... XXXX ......... XXXX ......... XXXX ......... XXXXXXXXXXXXXXXXXXXXXXXX",
"XXXXXXXXXXXXXXXXXX ..........    .......... XXXX ..........    .......... XXXX ......... XXXX ..........    .......... XXXXXXXXXXXXXXXXXXXXXXXX",
"XXXXXXXXXXXXXXXXXX .......................  XXXX .......................  XXX  ........ XXXXX .......................  XXXXXXXXXXXXXXXXXXXXXXXX",
"XXXXXXXXXXXXXXXXX  ....................... XXXX  ....................... XXXX ......... XXXX  ....................... XXXXXXXXXXXXXXXXXXXXXXXXX",
"XXXXXXXXXXXXXXXXX ........................ XXXX ........................ XXXX ......... XXXX ........................ XXXXXXXXXXXXXXXXXXXXXXXXX",
"XXXXXXXXXXXXXXXXX ........................ XXXX ........................ XXXX ......... XXXX ........................ XXXXXXXXXXXXXXXXXXXXXXXXX",
"XXXXXXXXXXXXXXXXX ........................ XXXX ........................ XXXX ......... XXXX ........................ XXXXXXXXXXXXXXXXXXXXXXXXX",
"XXXXXXXXXXXXXXXXX ........................ XXXX ........................ XXXX ........  XXXX ........................ XXXXXXXXXXXXXXXXXXXXXXXXX",
"XXXXXXXXXXXXXXXXX .......................  XXXX .......................  XXX  ........ XXXXX .......................  XXXXXXXXXXXXXXXXXXXXXXXXX",
"XXXXXXXXXXXXXXXX  ....................... XXXX  ....................... XXXX ......... XXXX  ....................... XXXXXXXXXXXXXXXXXXXXXXXXXX",
"XXXXXXXXXXXXXXXX              ........... XXXX                          XXXX           XXXX                          XXXXXXXXXXXXXXXXXXXXXXXXXX",
"XXXXXXXXXXXXXXXXX               ......... XXXXX                        XXXXXX         XXXXXX                        XXXXXXXXXXXXXXXXXXXXXXXXXXX",
"XXXXXXXXXXXXXXXXXXXXXXXXXXXXXXX ......... XXXXXXXXXXXXXXXXXXXXXXXXXXXXXXXXXXXXXXXXXXXXXXXXXXXXXXXXXXXXXXXXXXXXXXXXXXXXXXXXXXXXXXXXXXXXXXXXXXXXX",
"XXXXXXXXXXXXXXXXXXXXXXXXXXXXXXX ......... XXXXXXXXXXXXXXXXXXXXXXXXXXXXXXXXXXXXXXXXXXXXXXXXXXXXXXXXXXXXXXXXXXXXXXXXXXXXXXXXXXXXXXXXXXXXXXXXXXXXX",
"XXXXXXXXXXXXXXXXXXXXXXXXXXXXXX  ........  XXXXXXXXXXXXXXXXXXXXXXXXXXXXXXXXXXXXXXXXXXXXXXXXXXXXXXXXXXXXXXXXXXXXXXXXXXXXXXXXXXXXXXXXXXXXXXXXXXXXX",
"XXXXXXXXXXXXXXXXXXXXXXXXXXXXXX ......... XXXXXXXXXXXXXXXXXXXXXXXXXXXXXXXXXXXXXXXXXXXXXXXXXXXXXXXXXXXXXXXXXXXXXXXXXXXXXXXXXXXXXXXXXXXXXXXXXXXXXX",
"XXXXXXXXXXXXXXXXXXXXXXXXXXXXXX ......... XXXXXXXXXXXXXXXXXXXXXXXXXXXXXXXXXXXXXXXXXXXXXXXXXXXXXXXXXXXXXXXXXXXXXXXXXXXXXXXXXXXXXXXXXXXXXXXXXXXXXX",
"XXXXXXXXXXXXXXXXXXXXXXXXXXXXXX           XXXXXXXXXXXXXXXXXXXXXXXXXXXXXXXXXXXXXXXXXXXXXXXXXXXXXXXXXXXXXXXXXXXXXXXXXXXXXXXXXXXXXXXXXXXXXXXXXXXXXX",
"XXXXXXXXXXXXXXXXXXXXXXXXXXXXXXXXXXXXXXXXXXXXXXXXXXXXXXXXXXXXXXXXXXXXXXXXXXXXXXXXXXXXXXXXXXXXXXXXXXXXXXXXXXXXXXXXXXXXXXXXXXXXXXXXXXXXXXXXXXXXXXX",
"XXXXXXXXXXXXXXXXXXXXXXXXXXXXXXXXXXXXXXXXXXXXXXXXXXXXXXXXXXXXXXXXXXXXXXXXXXXXXXXXXXXXXXXXXXXXXXXXXXXXXXXXXXXXXXXXXXXXXXXXXXXXXXXXXXXXXXXXXXXXXXX",
"XXXXXXXXXXXXXXXXXXXXXXXXXXXXXXXXXXXXXXXXXXXXXXXXXXXXXXXXXXXXXXXXXXXXXXXXXXXXXXXXXXXXXXXXXXXXXXXXXXXXXXXXXXXXXXXXXXXXXXXXXXXXXXXXXXXXXXXXXXXXXXX",
"XXXXXXXXXXXXXXXXXXXXXXXXXXXXXXXXXXXXXXXXXXXXXXXXXXXXXXXXXXXXXXXXXXXXXXXXXXXXXXXXXXXXXXXXXXXXXXXXXXXXXXXXXXXXXXXXXXXXXXXXXXXXXXXXXXXXXXXXXXXXXXX",
"XXXXXXXXXXXXXXXXXXXXXXXXXXXXXXXXXXXXXXXXXXXXXXXXXXXXXXXXXXXXXXXXXXXXXXXXXXXXXXXXXXXXXXXXXXXXXXXXXXXXXXXXXXXXXXXXXXXXXXXXXXXXXXXXXXXXXXXXXXXXXXX",
"XXXXXXXXXXXXXXXXXXXXXXXXXXXXXXXXXXXXXXXXXXXXXXXXXXXXXXXXXXXXXXXXXXXXXXXXXXXXXXXXXXXXXXXXXXXXXXXXXXXXXXXXXXXXXXXXXXXXXXXXXXXXXXXXXXXXXXXXXXXXXXX",
"XXXXXXXXXXXXXXXXXXXXXXXXXXXXXXXXXXXXXXXXXXXXXXXXXXXXXXXXXXXXXXXXXXXXXXXXXXXXXXXXXXXXXXXXXXXXXXXXXXXXXXXXXXXXXXXXXXXXXXXXXXXXXXXXXXXXXXXXXXXXXXX",
"XXXXXXXXXXXXXXXXXXXXXXXXXXXXXXXXXXXXXXXXXXXXXXXXXXXXXXXXXXXXXXXXXXXXXXXXXXXXXXXXXXXXXXXXXXXXXXXXXXXXXXXXXXXXXXXXXXXXXXXXXXXXXXXXXXXXXXXXXXXXXXX",
"XXXXXXXXXXXXXXXXXXXXXXXXXXXXXXXXXXXXXXXXXXXXXXXXXXXXXXXXXXXXXXXXXXXXXXXXXXXXXXXXXXXXXXXXXXXXXXXXXXXXXXXXXXXXXXXXXXXXXXXXXXXXXXXXXXXXXXXXXXXXXXX",
"XXXXXXXXXXXXXXXXXXXXXXXXXXXXXXXXXXXXXXXXXXXXXXXXXXXXXXXXXXXXXXXXXXXXXXXXXXXXXXXXXXXXXXXXXXXXXXXXXXXXXXXXXXXXXXXXXXXXXXXXXXXXXXXXXXXXXXXXXXXXXXX",
"XXXXXXXXXXXXXXXXXXXXXXXXXXXXXXXXXXXXXXXXXXXXXXXXXXXXXXXXXXXXXXXXXXXXXXXXXXXXXXXXXXXXXXXXXXXXXXXXXXXXXXXXXXXXXXXXXXXXXXXXXXXXXXXXXXXXXXXXXXXXXXX",
"XXXXXXXXXXXXXXXXXXXXXXXXXXXXXXXXXXXXXXXXXXXXXXXXXXXXXXXXXXXXXXXXXXXXXXXXXXXXXXXXXXXXXXXXXXXXXXXXXXXXXXXXXXXXXXXXXXXXXXXXXXXXXXXXXXXXXXXXXXXXXXX",
"XXXXXXXXXXXXXXXXXXXXXXXXXXXXXXXXXXXXXXXXXXXXXXXXXXXXXXXXXXXXXXXXXXXXXXXXXXXXXXXXXXXXXXXXXXXXXXXXXXXXXXXXXXXXXXXXXXXXXXXXXXXXXXXXXXXXXXXXXXXXXXX",
"XXXXXXXXXXXXXXXXXXXXXXXXXXXXXXXXXXXXXXXXXXXXXXXXXXXXXXXXXXXXXXXXXXXXXXXXXXXXXXXXXXXXXXXXXXXXXXXXXXXXXXXXXXXXXXXXXXXXXXXXXXXXXXXXXXXXXXXXXXXXXXX",
"XXXXXXXXXXXXXXXXXXXXXXXXXXXXXXXXXXXXXXXXXXXXXXXXXXXXXXXXXXXXXXXXXXXXXXXXXXXXXXXXXXXXXXXXXXXXXXXXXXXXXXXXXXXXXXXXXXXXXXXXXXXXXXXXXXXXXXXXXXXXXXX",
"XXXXXXXXXXXXXXXXXXXXXXXXXXXXXXXXXXXXXXXXXXXXXXXXXXXXXXXXXXXXXXXXXXXXXXXXXXXXXXXXXXXXXXXXXXXXXXXXXXXXXXXXXXXXXXXXXXXXXXXXXXXXXXXXXXXXXXXXXXXXXXX"
};
